<?xml version="1.0" encoding="utf-8"?>
<!-- Generator: Adobe Illustrator 15.0.0, SVG Export Plug-In . SVG Version: 6.00 Build 0)  -->
<!DOCTYPE svg PUBLIC "-//W3C//DTD SVG 1.1//EN" "http://www.w3.org/Graphics/SVG/1.1/DTD/svg11.dtd">
<svg version="1.1" id="Layer_1" xmlns="http://www.w3.org/2000/svg" xmlns:xlink="http://www.w3.org/1999/xlink" x="0px" y="0px"
	 width="792px" height="612px" viewBox="0 0 792 612" enable-background="new 0 0 792 612" xml:space="preserve">
<g>
	<g>
		<linearGradient id="SVGID_1_" gradientUnits="userSpaceOnUse" x1="1.6406" y1="306.0557" x2="790.541" y2="306.0557">
			<stop  offset="0" style="stop-color:#FF0000"/>
			<stop  offset="0.2025" style="stop-color:#FF7800"/>
			<stop  offset="0.411" style="stop-color:#FFFF00"/>
			<stop  offset="0.6258" style="stop-color:#00FF00"/>
			<stop  offset="0.7914" style="stop-color:#0000FF"/>
			<stop  offset="0.8096" style="stop-color:#2100FF"/>
			<stop  offset="0.8499" style="stop-color:#6300FF"/>
			<stop  offset="0.8882" style="stop-color:#9B00FF"/>
			<stop  offset="0.9234" style="stop-color:#C600FF"/>
			<stop  offset="0.9548" style="stop-color:#E500FF"/>
			<stop  offset="0.9815" style="stop-color:#F800FF"/>
			<stop  offset="1" style="stop-color:#FF00FF"/>
		</linearGradient>
		<path fill="url(#SVGID_1_)" d="M409.676,236.807c26.988-55.399,56.553-96.948,88.691-124.647
			C530.505,84.46,565.219,70.61,602.506,70.61c52.557,0,97.034,21.929,133.437,65.786c36.398,43.858,54.599,97.215,54.599,160.071
			c0,68.184-19.71,127.045-59.129,176.585c-39.417,49.539-86.293,74.309-140.625,74.309c-32.67,0-66.409-14.294-101.209-42.88
			c-34.802-28.588-70.492-71.646-107.07-129.176c-27.344,55.398-57.085,96.948-89.225,124.646
			c-32.137,27.7-66.674,41.551-103.606,41.551c-52.204,0-96.594-21.929-133.171-65.787C19.929,431.858,1.641,378.501,1.641,315.644
			c0-68.183,19.709-127.044,59.127-176.583c39.419-49.54,86.295-74.31,140.629-74.31c32.315,0,65.875,14.382,100.677,43.147
			C336.875,136.663,372.743,179.632,409.676,236.807z M348.417,328.961l-12.252-17.047c-41.193-55.753-71.734-92.775-91.621-111.063
			c-19.887-18.289-39.595-27.434-59.128-27.434c-28.41,0-52.646,14.738-72.71,44.213c-20.065,29.476-30.097,65.342-30.097,107.602
			c0,40.129,11.008,73.599,33.026,100.41c22.018,26.811,49.54,40.218,82.566,40.218c24.858,0,49.806-11.364,74.841-34.091
			C298.079,409.041,323.203,374.771,348.417,328.961z M443.767,283.15l12.785,17.046c33.735,46.166,63.122,80.789,88.157,103.874
			c25.036,23.081,45.724,34.624,62.059,34.624c28.763,0,53.089-14.739,72.976-44.213c19.887-29.476,29.831-65.344,29.831-107.602
			c0-40.129-11.009-73.599-33.026-100.412c-22.02-26.811-49.539-40.217-82.564-40.217c-25.213,0-50.339,11.452-75.375,34.358
			C493.573,203.514,468.625,237.695,443.767,283.15z"/>
	</g>
</g>
</svg>
